<?xml version="1.0" standalone="no"?><!DOCTYPE svg PUBLIC "-//W3C//DTD SVG 1.1//EN" "http://www.w3.org/Graphics/SVG/1.1/DTD/svg11.dtd"><svg t="1766736604506" class="icon" viewBox="0 0 1024 1024" version="1.1" xmlns="http://www.w3.org/2000/svg" p-id="6878" xmlns:xlink="http://www.w3.org/1999/xlink" width="200" height="200"><path d="M654.4 1024l308.8-67.2s-112-752-112-758.4c-1.6-4.8-4.8-8-8-8s-83.2-6.4-83.2-6.4-56-54.4-62.4-59.2c-1.6-1.6-3.2-1.6-4.8-3.2L654.4 1024zM680 121.6c-1.6 0-1.6 0-3.2 1.6-1.6 0-11.2 3.2-30.4 9.6C627.2 80 596.8 32 539.2 32h-4.8C518.4 9.6 499.2 1.6 481.6 1.6c-132.8 0-196.8 164.8-216 248-51.2 16-88 27.2-92.8 28.8-28.8 8-28.8 9.6-33.6 36.8-3.2 20.8-76.8 601.6-76.8 601.6L641.6 1024l38.4-902.4z m-150.4 40v4.8c-32 9.6-67.2 20.8-102.4 32 19.2-76.8 56-112 89.6-126.4 6.4 20.8 12.8 49.6 12.8 89.6z m-52.8-126.4c4.8 0 11.2 1.6 17.6 4.8-43.2 19.2-88 70.4-107.2 169.6-28.8 8-56 17.6-80 25.6C328 160 382.4 35.2 476.8 35.2z m22.4 446.4s-33.6-19.2-76.8-19.2c-60.8 0-64 38.4-64 48 0 52.8 139.2 73.6 139.2 196.8 0 97.6-62.4 161.6-145.6 161.6-100.8 0-152-62.4-152-62.4l27.2-88s52.8 46.4 97.6 46.4c28.8 0 41.6-22.4 41.6-40 0-70.4-113.6-72-113.6-187.2 0-96 68.8-188.8 206.4-188.8 52.8 0 80 16 80 16l-40 116.8z m52.8-416c28.8 3.2 49.6 36.8 60.8 75.2-14.4 4.8-32 9.6-49.6 16v-11.2c0-32-3.2-59.2-11.2-80z" p-id="6879" data-spm-anchor-id="a313x.search_index.0.i8.1ab43a81iWy5zX" class="selected" fill="#97BF48"></path></svg>