<?xml version="1.0" standalone="no"?><!DOCTYPE svg PUBLIC "-//W3C//DTD SVG 1.1//EN" "http://www.w3.org/Graphics/SVG/1.1/DTD/svg11.dtd"><svg t="1766470334797" class="icon" viewBox="0 0 1024 1024" version="1.1" xmlns="http://www.w3.org/2000/svg" p-id="4401" xmlns:xlink="http://www.w3.org/1999/xlink" width="200" height="200"><path d="M422.4 647.68c-7.68-19.456-14.336-36.352-20.48-53.248-13.312-33.792-26.112-67.072-39.424-100.864-11.264-28.672-22.016-57.344-33.28-86.016-5.632-15.36-13.824-29.184-27.648-38.912-23.04-15.36-55.808-7.68-71.68 16.384-13.312 20.992-14.336 41.984-5.12 65.024 14.336 36.864 27.648 73.728 41.472 111.104 11.776 31.744 23.552 63.488 36.352 94.72 9.728 23.552 24.064 44.032 46.592 57.344 31.232 17.92 68.608 12.8 96.768-13.824 23.04-21.504 37.376-47.616 47.104-76.8 11.776-34.816 23.04-69.632 33.792-104.448 15.872-49.664 30.72-99.84 46.592-149.504 7.168-23.552 13.824-47.616 23.04-70.656 15.36-39.424 45.056-66.048 82.944-82.944 60.928-26.624 128.512-9.216 172.032 35.84 35.84 37.376 50.688 82.944 40.448 134.144-5.12 25.088-15.36 49.664-23.04 74.24-15.36 48.128-31.232 95.744-46.592 143.872-8.704 25.6-15.872 52.224-26.624 77.312-22.528 54.784-56.832 100.352-112.128 125.44-40.96 18.944-82.944 21.504-125.44 3.584-2.048-1.024-3.584-2.048-6.144-3.584 4.096-4.608 7.168-8.192 10.752-11.776 17.92-17.92 30.208-38.912 41.472-61.44 0 0 0.512-1.024 0.512-1.536 4.608-13.824 12.288-20.48 28.672-19.456 19.968 1.024 36.352-9.728 49.664-23.552 20.992-21.504 32.256-48.128 41.984-75.776 11.776-34.304 23.552-69.12 34.816-103.424 14.336-44.544 27.648-89.6 41.984-134.144 10.24-31.232-3.584-56.832-28.672-71.68-27.136-15.872-62.464-11.264-82.432 12.288-7.168 8.704-11.264 20.992-14.848 31.744-15.872 49.664-31.232 99.328-46.592 148.992-13.312 43.52-26.624 87.04-40.448 130.56-13.312 41.472-30.208 81.92-57.856 116.736-29.696 36.864-66.56 60.416-114.176 67.072-36.352 5.12-71.168 1.536-103.936-15.36-32.256-16.896-56.32-43.008-75.264-74.24-18.432-30.208-28.672-64-41.984-96.768-13.312-33.28-26.624-67.072-39.424-100.352-8.192-22.016-17.408-44.032-23.552-66.56-9.216-35.328-5.12-69.632 11.264-102.912 15.36-30.72 37.888-54.272 69.12-68.608 44.032-19.968 87.552-18.944 130.048 5.632 32.768 18.432 53.248 47.104 66.048 81.92 16.384 43.52 33.28 86.528 49.664 129.536 3.584 9.216 6.656 17.92 10.24 27.136 0.512 2.048 1.024 4.608 0 7.168-8.704 34.304-19.456 67.584-37.888 98.304l-9.216 12.8z" fill="#5F5AEB" p-id="4402"></path></svg>